<svg id="Layer_1" data-name="Layer 1" xmlns="http://www.w3.org/2000/svg" viewBox="0 0 1083.94 129"><defs><style>.cls-1{fill:#3784b1;}</style></defs><title>expressionengine-with-text</title><path class="cls-1" d="M351.06,104.93l-13.51-23,20.23-23.75.4-2.79H344.42L332.21,70.64c-.41.5-1.11,1.51-2.12,4.94.1-3.43-.61-4.44-.81-4.84L320.71,55.4H304.86L320,81.53l-24.11,28.05h15.83L325.35,93a14.23,14.23,0,0,0,2.32-4.94,10.9,10.9,0,0,0,1,4.94l9.38,16.55h12.33Z" transform="translate(-1.71 -5)"/><path class="cls-1" d="M303.52,48.14H268.61l-2.53,17.45H298l-5,11.3H264.07a4.33,4.33,0,0,1,.1,1.92l-2.83,19.48h35l-1.61,11.29H246.21L256.7,36.84h48.43Z" transform="translate(-1.71 -5)"/><path class="cls-1" d="M409.22,82c-2.52,17.76-10.39,29.16-29.46,29.16a26.81,26.81,0,0,1-11.2-2.42,8.38,8.38,0,0,1,.4,3.53L365.83,134H352.32l11.3-78.6h9.68l1.11,4.44a23.37,23.37,0,0,1,15.14-6.05c14.42,0,20.27,8.37,20.27,21A46.36,46.36,0,0,1,409.22,82Zm-22.6-18a19.42,19.42,0,0,0-11.2,3.43l-4.54,31.38a24.69,24.69,0,0,0,10.29,2c8.17,0,12.61-5.25,14.53-18.87a45.77,45.77,0,0,0,.61-6.76C396.31,67.21,393.08,64.08,386.62,64.08Z" transform="translate(-1.71 -5)"/><path class="cls-1" d="M450.58,65.9a50.18,50.18,0,0,0-7-.51,21.79,21.79,0,0,0-11.4,2.73l-6,41.46H412.75l7.77-54.18h11.09l.81,4.34c4.54-4.34,9.08-6,13.93-6a30.34,30.34,0,0,1,5.95.71Z" transform="translate(-1.71 -5)"/><path class="cls-1" d="M502.12,86.38H465.69a34.93,34.93,0,0,0-.29,4.34c0,6.66,3,9.78,10.49,9.78,7,0,10.89-3,13.82-7.47l10.19,4.14c-4.74,9.08-13.62,14-25.53,14-15.33,0-22.3-8.18-22.3-21.8a57.21,57.21,0,0,1,.51-7c2.92-19.87,11.61-28.65,30.07-28.65,16.75,0,20.58,11.8,20.58,21.89A86.52,86.52,0,0,1,502.12,86.38ZM481,64.48c-7.66,0-11.4,2.93-13.62,12.41h22.2a20.54,20.54,0,0,0,.3-3.33C489.91,67.61,487,64.48,481,64.48Z" transform="translate(-1.71 -5)"/><path class="cls-1" d="M543.79,69.73c-1.92-3.43-5.45-5.35-11-5.35-4.34,0-9.59.91-9.59,6.36a3.66,3.66,0,0,0,3.34,3.94l11.7,2.11c7.36,1.32,13.42,5.45,13.42,13.32,0,15.44-12.82,21.09-26.24,21.09-9.48,0-16.94-3.23-20.58-11.7l11.3-4.14c2.12,3.83,5.55,5.55,10.7,5.55s11.3-1.52,11.3-7.77c0-2.22-1-3.83-3.94-4.34l-12.61-2.32c-5.85-1.11-11.6-5.55-11.6-13.93,0-14.32,11.8-18.76,24.31-18.76,11.2,0,17.36,4.54,20.08,11Z" transform="translate(-1.71 -5)"/><path class="cls-1" d="M593.33,69.73c-1.92-3.43-5.45-5.35-11-5.35-4.34,0-9.58.91-9.58,6.36a3.66,3.66,0,0,0,3.33,3.94l11.7,2.11c7.37,1.32,13.42,5.45,13.42,13.32,0,15.44-12.82,21.09-26.24,21.09-9.48,0-16.94-3.23-20.57-11.7l11.29-4.14c2.12,3.83,5.56,5.55,10.7,5.55s11.3-1.52,11.3-7.77c0-2.22-1-3.83-3.93-4.34l-12.62-2.32c-5.85-1.11-11.6-5.55-11.6-13.93,0-14.32,11.8-18.76,24.32-18.76,11.19,0,17.35,4.54,20.07,11Z" transform="translate(-1.71 -5)"/><path class="cls-1" d="M631,110.49H624.1c-7.87,0-11.7-3.43-11.7-10.49a24.4,24.4,0,0,1,.29-3.54l4-27.94a5.89,5.89,0,0,1,1.41-2.93h-9.79l1.42-10.19h22.29l-5.85,41.06a7.33,7.33,0,0,0-.1,1.42c0,1.21.5,1.62,2,1.62h4.34Zm2.72-65.89c-.11.92-.11.92-.91.92H619.66c-.81,0-.81,0-.71-.92l1.82-12.5c.1-1,.1-1.12.91-1.12h13.11c.81,0,.81.11.71,1.12Z" transform="translate(-1.71 -5)"/><path class="cls-1" d="M690,82.44c-2.72,18.77-10.89,28.76-29.56,28.76-15.94,0-21.69-9.79-21.69-22.1a51,51,0,0,1,.5-6.66C642,63.37,650,53.79,668.7,53.79c15.84,0,21.79,9.28,21.79,21.79A53.62,53.62,0,0,1,690,82.44Zm-22.9-18c-8.27,0-12.31,4.24-14.32,18a49.32,49.32,0,0,0-.61,7.17c0,8.17,3.22,10.89,9.78,10.89,8.18,0,12.52-4.24,14.54-18.06a46.73,46.73,0,0,0,.6-7C677.07,67.21,673.74,64.48,667.08,64.48Z" transform="translate(-1.71 -5)"/><path class="cls-1" d="M743.5,75.48l-5,34.1H725.13l5-34.1a22,22,0,0,0,.3-3.53c0-4.64-1.81-7.67-6.86-7.67-4.14,0-9,2.32-12.91,4.74l-5.86,40.56H691.33L699.1,55.4h11.1l.91,5c6.25-5,11.3-6.56,16.95-6.56,11.3,0,15.84,7.16,15.84,16.75A43,43,0,0,1,743.5,75.48Z" transform="translate(-1.71 -5)"/><path class="cls-1" d="M808.37,48.14H773.46l-2.52,17.45h31.88l-4.94,11.3h-29a4.33,4.33,0,0,1,.1,1.92L766.2,98.29h35l-1.62,11.29H751.06l10.5-72.74H810Z" transform="translate(-1.71 -5)"/><path class="cls-1" d="M858.7,75.48l-4.94,34.1H840.34l4.94-34.1a22,22,0,0,0,.3-3.53c0-4.64-1.82-7.67-6.86-7.67-4.14,0-9,2.32-12.92,4.74L820,109.58H806.54l7.77-54.18H825.4l.91,5c6.26-5,11.3-6.56,17-6.56,11.3,0,15.85,7.16,15.85,16.75A43.08,43.08,0,0,1,858.7,75.48Z" transform="translate(-1.71 -5)"/><path class="cls-1" d="M926.37,65.59h-6.56a12.49,12.49,0,0,1-4.84-.9,20,20,0,0,1,1.4,7.36c0,15.74-12.5,21.79-26.53,21.79a40.15,40.15,0,0,1-8.78-.9,4.67,4.67,0,0,0-1.31-.21,2.15,2.15,0,0,0-2.42,2.32c0,1,.5,1.72,2.72,2.12l19.48,3.63c10.79,2,14.53,6.66,14.53,12.62,0,17.45-16.35,20.58-30.07,20.58-10.89,0-25.12-2.93-25.12-16.55a19.32,19.32,0,0,1,9.78-16.74,7.85,7.85,0,0,1-1.81-4.85c0-3.63,2.62-6.46,5.65-8.07A17.56,17.56,0,0,1,869,77.1c0-15.84,12.3-23.31,26.73-23.31,5,0,10.39.91,14.33,3.43l7.78-1.75h9.79Zm-30.88,44.2-19-3.54c-3,3.23-4.33,5.35-4.33,9.89,0,5.15,3.63,7.47,13.31,7.47,6.36,0,15.14-1,15.14-9.18C900.64,111.91,899.33,110.49,895.49,109.79Zm-1.31-45.41c-7.57,0-11.91,4.34-11.91,11.81,0,5,3.23,7.16,9.09,7.16,7.56,0,11.8-4,11.8-11.5C903.16,66.91,900.23,64.38,894.18,64.38Z" transform="translate(-1.71 -5)"/><path class="cls-1" d="M945.13,110.49h-6.86c-7.88,0-11.7-3.43-11.7-10.49a23.15,23.15,0,0,1,.3-3.54l4-27.94a6,6,0,0,1,1.42-2.93h-9.79l1.41-10.19h22.29l-5.84,41.06a7.33,7.33,0,0,0-.1,1.42c0,1.21.5,1.62,2,1.62h4.34Zm2.72-65.89c-.1.92-.1.92-.9.92H933.83c-.81,0-.81,0-.71-.92l1.82-12.5c.1-1,.1-1.12.91-1.12H949c.81,0,.81.11.71,1.12Z" transform="translate(-1.71 -5)"/><path class="cls-1" d="M1003.46,75.48l-5,34.1H985.09L990,75.48a22,22,0,0,0,.3-3.53c0-4.64-1.81-7.67-6.86-7.67-4.14,0-9,2.32-12.91,4.74l-5.86,40.56H951.29l7.77-54.18h11.1l.91,5c6.25-5,11.3-6.56,16.95-6.56,11.3,0,15.84,7.16,15.84,16.75A43,43,0,0,1,1003.46,75.48Z" transform="translate(-1.71 -5)"/><path class="cls-1" d="M1057.51,86.38h-36.43a37.14,37.14,0,0,0-.3,4.34c0,6.66,3,9.78,10.49,9.78,7,0,10.91-3,13.83-7.47l10.19,4.14c-4.74,9.08-13.62,14-25.53,14-15.33,0-22.29-8.18-22.29-21.8a53.46,53.46,0,0,1,.51-7c2.91-19.87,11.59-28.65,30.06-28.65,16.75,0,20.58,11.8,20.58,21.89A86.52,86.52,0,0,1,1057.51,86.38Zm-21.08-21.9c-7.67,0-11.4,2.93-13.63,12.41H1045a20.54,20.54,0,0,0,.3-3.33C1045.3,67.61,1042.38,64.48,1036.43,64.48Z" transform="translate(-1.71 -5)"/><path class="cls-1" d="M117.08,84.68c-4.88,4.68-9.16,8-12.62,9.64a26,26,0,0,1-11.19,2.6c-4.61,0-8.36-1.47-11.12-4.37S78,85.51,78,80.21l.36-5.31.73-.13c12.94-2.18,22.69-4.67,29-7.42s10.78-5.95,13.52-9.6,4.09-7.27,4.09-10.81a13,13,0,0,0-5-10.54c-3.37-2.81-8.23-4.23-14.43-4.23a51.08,51.08,0,0,0-24.24,6A46.05,46.05,0,0,0,64.3,54.48a40.4,40.4,0,0,0-6.47,21.61c0,8.34,2.57,15,7.64,19.86s12.19,7.3,21.12,7.3a42.57,42.57,0,0,0,17.83-3.79c5.25-2.4,10.69-6.57,16.18-12.19ZM79.2,69.49C81.12,58.62,84.52,50,89.29,43.72,92.66,39.25,96.39,37,100.4,37a6.81,6.81,0,0,1,5.32,2.43,9.51,9.51,0,0,1,2.07,6.44c0,6.25-2.81,11.93-8.35,16.92-4,3.58-10.46,6.2-19.15,7.79L79,70.82Z" transform="translate(-1.71 -5)"/><path class="cls-1" d="M29.07,86.42C21.72,57.67,39.12,27.61,69,13.9c-.75.26-1.45.57-2.19.85a20,20,0,0,1,2-.84l-56,14.44L27.7,37.18C8.16,53.74-1.93,74.25,2.91,93.17c7.56,29.62,49,45.06,95.92,37.48C66.07,133.09,36.41,115.17,29.07,86.42Z" transform="translate(-1.71 -5)"/><path class="cls-1" d="M160.26,51.14c7.35,28.75-10,58.81-39.93,72.52.75-.27,1.45-.58,2.19-.86a18.2,18.2,0,0,1-2,.85l56-14.44-14.93-8.83c19.55-16.56,29.63-37.08,24.8-56-7.57-29.61-49-45.06-95.92-37.46C123.25,4.47,152.92,22.39,160.26,51.14Z" transform="translate(-1.71 -5)"/><path class="cls-1" d="M1085.65,34.85a14.46,14.46,0,1,1-14.41-14.07A14.13,14.13,0,0,1,1085.65,34.85Zm-25.31,0a10.9,10.9,0,0,0,11,11.24c6.18,0,10.73-5,10.73-11.16s-4.55-11.32-10.81-11.32A10.93,10.93,0,0,0,1060.34,34.85Zm8.66,7.38h-3.26V28.16a28.32,28.32,0,0,1,5.41-.43,8.77,8.77,0,0,1,4.89,1,3.9,3.9,0,0,1,1.37,3.09c0,1.54-1.2,2.74-2.91,3.26v.17c1.37.51,2.14,1.54,2.57,3.43a11,11,0,0,0,1,3.52h-3.52a12.14,12.14,0,0,1-1.11-3.43c-.26-1.55-1.12-2.24-2.92-2.24H1069Zm.09-8h1.54c1.81,0,3.27-.6,3.27-2.06,0-1.29-1-2.15-3-2.15a7.41,7.41,0,0,0-1.8.18Z" transform="translate(-1.71 -5)"/></svg>